<?xml version="1.0" encoding="UTF-8"?>
<svg xmlns="http://www.w3.org/2000/svg" width="1220" height="400"
     viewBox="0 0 1220 400">
  <rect width="100%" height="100%" fill="white"/>
  <text x="610" y="14" text-anchor="middle"
        font-family="sans-serif" font-size="13" font-weight="bold"
        fill="#222">BZip2 Implementation – Canterbury Corpus Benchmark</text>
<g transform="translate(0,20)">
<text x="300" y="20" text-anchor="middle" font-family="sans-serif" font-size="13" font-weight="bold">Compression ratio (avg over block sizes)</text>
<rect x="130" y="30.0" width="83.2" height="21.1" fill="#4c72b0" />
<text x="125" y="44.8" text-anchor="end" font-family="monospace" font-size="10">xargs.1</text>
<text x="217.2" y="44.8" font-family="monospace" font-size="10" fill="#333">2.03x</text>
<rect x="130" y="58.2" width="94.9" height="21.1" fill="#4c72b0" />
<text x="125" y="73.0" text-anchor="end" font-family="monospace" font-size="10">grammar.lsp</text>
<text x="228.9" y="73.0" font-family="monospace" font-size="10" fill="#333">2.31x</text>
<rect x="130" y="86.4" width="108.8" height="21.1" fill="#4c72b0" />
<text x="125" y="101.2" text-anchor="end" font-family="monospace" font-size="10">sum</text>
<text x="242.8" y="101.2" font-family="monospace" font-size="10" fill="#333">2.65x</text>
<rect x="130" y="114.5" width="113.3" height="21.1" fill="#4c72b0" />
<text x="125" y="129.3" text-anchor="end" font-family="monospace" font-size="10">asyoulik.txt</text>
<text x="247.3" y="129.3" font-family="monospace" font-size="10" fill="#333">2.76x</text>
<rect x="130" y="142.7" width="115.2" height="21.1" fill="#4c72b0" />
<text x="125" y="157.5" text-anchor="end" font-family="monospace" font-size="10">plrabn12.txt</text>
<text x="249.2" y="157.5" font-family="monospace" font-size="10" fill="#333">2.80x</text>
<rect x="130" y="170.9" width="116.6" height="21.1" fill="#4c72b0" />
<text x="125" y="185.7" text-anchor="end" font-family="monospace" font-size="10">cp.html</text>
<text x="250.6" y="185.7" font-family="monospace" font-size="10" fill="#333">2.84x</text>
<rect x="130" y="199.1" width="126.0" height="21.1" fill="#4c72b0" />
<text x="125" y="213.9" text-anchor="end" font-family="monospace" font-size="10">fields.c</text>
<text x="260.0" y="213.9" font-family="monospace" font-size="10" fill="#333">3.07x</text>
<rect x="130" y="227.3" width="126.0" height="21.1" fill="#4c72b0" />
<text x="125" y="242.1" text-anchor="end" font-family="monospace" font-size="10">alice29.txt</text>
<text x="260.0" y="242.1" font-family="monospace" font-size="10" fill="#333">3.07x</text>
<rect x="130" y="255.5" width="137.0" height="21.1" fill="#4c72b0" />
<text x="125" y="270.2" text-anchor="end" font-family="monospace" font-size="10">lcet10.txt</text>
<text x="271.0" y="270.2" font-family="monospace" font-size="10" fill="#333">3.34x</text>
<rect x="130" y="283.6" width="232.7" height="21.1" fill="#4c72b0" />
<text x="125" y="298.4" text-anchor="end" font-family="monospace" font-size="10">kennedy.xls</text>
<text x="366.7" y="298.4" font-family="monospace" font-size="10" fill="#333">5.67x</text>
<rect x="130" y="311.8" width="390.0" height="21.1" fill="#4c72b0" />
<text x="125" y="326.6" text-anchor="end" font-family="monospace" font-size="10">ptt5</text>
<text x="524.0" y="326.6" font-family="monospace" font-size="10" fill="#333">9.49x</text>
</g>
<g transform="translate(620,20)">
<text x="300" y="20" text-anchor="middle" font-family="sans-serif" font-size="13" font-weight="bold">Compression time (s, avg over block sizes)</text>
<rect x="130" y="30.0" width="1.4" height="21.1" fill="#dd8452" />
<text x="125" y="44.8" text-anchor="end" font-family="monospace" font-size="10">xargs.1</text>
<text x="135.4" y="44.8" font-family="monospace" font-size="10" fill="#333">0.04s</text>
<rect x="130" y="58.2" width="2.5" height="21.1" fill="#dd8452" />
<text x="125" y="73.0" text-anchor="end" font-family="monospace" font-size="10">grammar.lsp</text>
<text x="136.5" y="73.0" font-family="monospace" font-size="10" fill="#333">0.07s</text>
<rect x="130" y="86.4" width="3.8" height="21.1" fill="#dd8452" />
<text x="125" y="101.2" text-anchor="end" font-family="monospace" font-size="10">fields.c</text>
<text x="137.8" y="101.2" font-family="monospace" font-size="10" fill="#333">0.10s</text>
<rect x="130" y="114.5" width="7.1" height="21.1" fill="#dd8452" />
<text x="125" y="129.3" text-anchor="end" font-family="monospace" font-size="10">cp.html</text>
<text x="141.1" y="129.3" font-family="monospace" font-size="10" fill="#333">0.18s</text>
<rect x="130" y="142.7" width="9.6" height="21.1" fill="#dd8452" />
<text x="125" y="157.5" text-anchor="end" font-family="monospace" font-size="10">sum</text>
<text x="143.6" y="157.5" font-family="monospace" font-size="10" fill="#333">0.25s</text>
<rect x="130" y="170.9" width="23.2" height="21.1" fill="#dd8452" />
<text x="125" y="185.7" text-anchor="end" font-family="monospace" font-size="10">ptt5</text>
<text x="157.2" y="185.7" font-family="monospace" font-size="10" fill="#333">0.60s</text>
<rect x="130" y="199.1" width="47.0" height="21.1" fill="#dd8452" />
<text x="125" y="213.9" text-anchor="end" font-family="monospace" font-size="10">asyoulik.txt</text>
<text x="181.0" y="213.9" font-family="monospace" font-size="10" fill="#333">1.22s</text>
<rect x="130" y="227.3" width="64.3" height="21.1" fill="#dd8452" />
<text x="125" y="242.1" text-anchor="end" font-family="monospace" font-size="10">alice29.txt</text>
<text x="198.3" y="242.1" font-family="monospace" font-size="10" fill="#333">1.67s</text>
<rect x="130" y="255.5" width="295.6" height="21.1" fill="#dd8452" />
<text x="125" y="270.2" text-anchor="end" font-family="monospace" font-size="10">lcet10.txt</text>
<text x="429.6" y="270.2" font-family="monospace" font-size="10" fill="#333">7.68s</text>
<rect x="130" y="283.6" width="359.0" height="21.1" fill="#dd8452" />
<text x="125" y="298.4" text-anchor="end" font-family="monospace" font-size="10">plrabn12.txt</text>
<text x="493.0" y="298.4" font-family="monospace" font-size="10" fill="#333">9.33s</text>
<rect x="130" y="311.8" width="390.0" height="21.1" fill="#dd8452" />
<text x="125" y="326.6" text-anchor="end" font-family="monospace" font-size="10">kennedy.xls</text>
<text x="524.0" y="326.6" font-family="monospace" font-size="10" fill="#333">10.13s</text>
</g>
</svg>
